<?xml version="1.0" standalone="no"?>
<!DOCTYPE svg PUBLIC "-//W3C//DTD SVG 20010904//EN"
 "http://www.w3.org/TR/2001/REC-SVG-20010904/DTD/svg10.dtd">
<svg version="1.0" xmlns="http://www.w3.org/2000/svg"
 width="568.000000pt" height="406.000000pt" viewBox="0 0 568.000000 406.000000"
 preserveAspectRatio="xMidYMid meet">
<metadata>
Created by potrace 1.16, written by Peter Selinger 2001-2019
</metadata>
<g transform="translate(0.000000,406.000000) scale(0.100000,-0.100000)"
fill="#000000" stroke="none">
<path d="M2400 4045 c0 -10 10 -15 29 -15 17 0 42 -10 58 -24 l28 -24 -21 -29
c-20 -26 -27 -28 -80 -26 -38 1 -110 18 -202 47 -212 68 -305 63 -384 -21 -75
-78 -76 -204 -3 -261 26 -21 65 -30 65 -15 0 3 -6 14 -14 22 -27 31 -28 58 -3
87 21 24 31 27 73 26 27 -1 105 -17 173 -36 67 -20 159 -43 202 -52 l79 -17 0
-97 0 -98 -45 -36 c-25 -21 -45 -43 -45 -51 0 -8 20 -30 45 -51 l45 -36 0
-139 0 -138 -52 -16 c-103 -30 -217 -13 -299 47 l-44 31 133 65 132 65 0 224
c0 122 -4 223 -9 223 -5 0 -74 -29 -155 -65 -80 -36 -149 -65 -152 -65 -16 0
63 93 106 125 53 39 68 72 28 60 -68 -21 -159 -76 -215 -131 -120 -118 -166
-270 -129 -428 22 -93 58 -155 127 -221 258 -246 674 -125 739 214 20 107 3
123 -44 39 -31 -54 -102 -138 -117 -138 -5 0 -9 55 -9 123 l0 123 50 38 c28
21 50 43 50 50 -1 6 -23 29 -50 50 l-50 39 0 97 0 97 38 7 c86 13 152 94 152
187 0 60 -31 107 -90 137 -53 26 -140 31 -140 7z m-340 -660 l0 -195 -36 -17
c-35 -17 -36 -17 -50 2 -42 57 -64 206 -47 309 5 35 11 40 67 66 34 16 62 29
64 29 1 1 2 -87 2 -194z"/>
<path d="M2798 3962 c-65 -42 -118 -81 -118 -85 0 -5 14 -22 30 -37 l30 -28 0
-385 0 -386 -40 -28 c-40 -28 -52 -53 -26 -53 8 0 18 5 21 10 11 17 21 11 92
-54 l70 -65 99 66 c120 79 110 71 97 84 -8 8 -18 6 -35 -5 -23 -15 -26 -14
-56 17 l-32 33 2 214 3 214 26 15 c25 14 28 13 78 -29 l51 -43 0 -211 c-1
-346 -18 -416 -118 -469 -28 -16 -52 -32 -52 -38 0 -15 111 -10 169 6 70 21
131 81 162 160 22 57 23 75 27 335 l3 275 32 27 c23 19 29 30 21 38 -8 8 -18
5 -37 -10 l-26 -20 -74 65 c-41 36 -79 65 -84 65 -6 0 -49 -29 -96 -65 l-87
-66 0 266 c0 146 -3 265 -7 265 -5 0 -61 -35 -125 -78z"/>
<path d="M3578 3552 l-158 -85 0 -213 0 -213 -35 -27 c-25 -19 -33 -30 -26
-37 8 -8 20 -4 41 12 l30 22 105 -77 c58 -42 111 -74 119 -71 29 11 286 221
286 234 0 23 -22 14 -95 -42 -39 -30 -74 -55 -78 -55 -3 0 -40 27 -82 61 -71
56 -76 62 -73 94 3 32 13 41 148 132 80 54 146 105 148 114 4 24 -138 239
-157 238 -9 -1 -87 -40 -173 -87z m101 -125 c33 -54 61 -102 61 -106 0 -8 -16
-19 -102 -75 l-28 -18 0 153 c0 84 2 150 4 148 2 -2 31 -48 65 -102z"/>
<path d="M5018 2552 c-65 -42 -118 -82 -118 -89 0 -6 14 -25 30 -41 l30 -30 0
-380 0 -379 -40 -28 c-39 -27 -53 -55 -27 -55 7 0 18 5 25 12 8 8 29 -5 85
-55 l74 -66 96 65 c54 35 97 71 97 79 0 19 -10 19 -36 0 -19 -13 -24 -11 -53
19 l-32 33 3 127 3 126 149 -225 149 -225 31 20 c17 11 68 44 113 73 46 28 83
58 83 65 0 16 -22 15 -46 -3 -10 -8 -22 -15 -26 -15 -12 0 -322 469 -315 476
3 4 27 -4 52 -16 70 -34 134 -25 185 25 51 50 92 165 58 165 -6 0 -22 -10 -35
-22 -17 -15 -37 -23 -63 -23 -25 0 -50 9 -69 23 -17 12 -37 22 -45 22 -8 0
-61 -73 -118 -162 l-103 -161 -3 361 c-1 199 -6 362 -10 362 -4 0 -60 -35
-124 -78z"/>
<path d="M965 2580 c-29 -57 -97 -67 -159 -25 -21 14 -41 27 -46 28 -6 2 -69
-67 -178 -196 -12 -14 -13 -20 -3 -30 10 -9 17 -6 36 15 l24 28 47 -25 c26
-14 60 -25 75 -25 l29 0 0 -252 c0 -138 -2 -249 -3 -247 -2 2 -84 144 -182
314 -98 171 -192 329 -208 352 -41 58 -103 88 -164 79 -89 -12 -144 -68 -163
-165 -16 -83 5 -108 37 -43 14 29 24 38 49 40 25 2 37 -3 58 -28 24 -29 26
-38 26 -129 l0 -98 -47 -7 c-56 -7 -105 -34 -130 -72 -24 -37 -22 -122 3 -165
19 -33 80 -77 90 -66 3 3 0 22 -7 42 -13 35 -12 38 10 56 13 10 36 19 52 19
l29 0 0 -134 0 -133 -49 -6 c-66 -8 -123 -38 -158 -84 -25 -33 -28 -44 -28
-117 0 -92 14 -120 77 -156 48 -27 138 -39 138 -19 0 8 -19 21 -42 29 -30 11
-45 23 -52 41 -33 95 84 138 173 64 16 -14 33 -25 37 -24 9 1 162 171 178 196
16 28 -9 34 -33 9 l-23 -25 -51 35 c-28 19 -70 40 -94 47 l-43 11 0 305 c0
167 3 302 6 298 4 -3 118 -201 254 -439 220 -385 250 -433 274 -436 l26 -3 0
454 0 455 34 6 c50 10 115 61 137 109 40 90 7 200 -36 117z"/>
<path d="M3355 2514 l-100 -75 -3 71 c-2 56 -6 70 -19 70 -14 0 -15 -52 -8
-527 7 -466 6 -525 -7 -520 -9 3 -36 9 -62 12 l-46 7 0 453 c0 451 0 452 -23
495 -29 54 -75 80 -144 80 -63 0 -99 -13 -137 -48 -30 -28 -65 -95 -66 -124 0
-29 27 -20 40 12 14 33 53 49 79 33 34 -21 41 -56 41 -200 0 -142 0 -143 -22
-143 -13 0 -47 -11 -76 -25 -44 -20 -56 -32 -73 -70 -38 -85 5 -195 75 -195
29 0 33 11 11 30 -35 29 -11 67 49 77 l36 6 0 -196 0 -197 -37 -19 c-47 -23
-68 -46 -88 -94 -29 -70 -17 -148 33 -201 70 -74 164 -83 407 -36 178 34 217
36 239 14 23 -22 20 -71 -4 -86 -33 -21 -25 -42 12 -34 115 23 178 146 126
246 -49 94 -159 112 -398 65 -182 -36 -253 -42 -284 -21 -39 25 -50 52 -35 87
30 74 140 82 389 30 213 -45 287 -34 331 51 18 35 19 64 19 461 l0 425 41 37
c30 27 38 40 30 48 -8 8 -17 5 -33 -10 -42 -37 -46 -37 -117 26 -38 34 -70 61
-72 60 -2 0 -49 -34 -104 -75z m44 -270 c1 -109 -1 -123 -19 -139 -25 -23 -71
-24 -104 -1 -26 16 -26 17 -26 155 l0 139 32 20 32 21 42 -37 42 -37 1 -121z
m-31 -181 l32 15 0 -69 c0 -68 -1 -69 -21 -58 -22 11 -80 8 -111 -5 -16 -7
-18 -1 -18 62 l0 70 43 -16 c39 -14 46 -14 75 1z m3 -149 l30 -15 -3 -159 c-3
-150 -4 -160 -26 -183 -25 -27 -66 -39 -101 -30 -21 5 -21 10 -21 187 l0 181
28 17 c34 22 55 22 93 2z"/>
<path d="M1602 2380 c-41 -17 -90 -60 -106 -95 -9 -18 -16 -56 -16 -84 0 -47
4 -55 50 -107 28 -30 55 -67 60 -80 6 -14 10 -112 10 -218 l0 -193 -35 -24
c-19 -13 -35 -27 -35 -31 0 -18 23 -17 50 2 20 15 35 19 43 13 7 -6 44 -36 84
-67 l72 -58 81 56 81 56 89 -55 88 -55 176 102 176 103 0 218 0 217 40 28 c39
27 52 52 27 52 -7 0 -22 -6 -32 -14 -17 -12 -25 -9 -75 35 -31 27 -61 49 -66
49 -5 0 -40 -29 -79 -64 l-70 -64 28 -29 27 -29 0 -237 0 -237 -67 43 -68 44
-3 194 -3 194 27 22 27 22 -74 70 c-41 39 -78 70 -84 70 -5 0 -41 -28 -80 -63
l-70 -64 33 -34 32 -34 0 -227 c0 -161 -3 -227 -11 -227 -6 0 -40 20 -75 45
l-63 45 -3 231 -3 231 -36 31 c-20 18 -55 47 -78 65 -56 46 -62 75 -22 116 17
17 31 35 31 39 0 10 -50 8 -78 -3z"/>
<path d="M1133 2142 l-163 -87 0 -212 0 -212 -30 -23 c-30 -22 -40 -48 -18
-48 6 0 22 10 35 21 l22 22 106 -77 c58 -42 110 -76 115 -76 18 0 301 231 295
240 -11 18 -26 11 -97 -45 -38 -30 -73 -55 -77 -55 -3 0 -41 27 -83 61 -69 53
-78 64 -78 93 0 32 7 38 155 136 110 73 154 108 150 118 -13 35 -148 232 -159
232 -6 0 -84 -40 -173 -88z m101 -129 l65 -103 -57 -38 c-31 -21 -63 -42 -69
-46 -10 -6 -13 26 -13 145 0 84 2 150 4 148 2 -2 33 -50 70 -106z"/>
<path d="M3908 2142 l-148 -87 0 -211 0 -212 -36 -27 c-42 -32 -33 -58 10 -29
26 16 28 16 54 -3 150 -111 173 -125 189 -119 10 4 84 48 165 97 l148 91 0
222 0 222 -102 72 c-56 40 -109 72 -117 71 -9 0 -82 -40 -163 -87z m175 -116
c16 -12 17 -32 15 -233 l-3 -221 -72 52 -72 51 -1 223 0 223 58 -41 c31 -23
65 -48 75 -54z"/>
<path d="M4430 2164 c-115 -80 -106 -72 -93 -85 8 -8 18 -6 36 6 24 16 26 15
56 -22 l31 -38 0 -195 -1 -195 -44 -33 c-57 -42 -60 -71 -4 -41 17 8 31 0 95
-55 l76 -65 105 70 c62 42 101 75 96 80 -5 5 -22 4 -41 -3 -29 -11 -34 -10
-62 17 l-30 29 0 212 0 211 48 -24 c96 -49 176 7 201 142 9 50 7 52 -38 29
-34 -17 -47 -14 -94 18 -16 12 -25 6 -72 -47 l-54 -60 -58 58 -59 57 -94 -66z"/>
<path d="M1740 1226 c0 -8 15 -16 36 -19 20 -3 42 -11 50 -18 22 -18 17 -57
-11 -75 -35 -23 -91 -15 -250 37 -170 55 -277 63 -345 27 -25 -14 -58 -44 -75
-67 -27 -38 -30 -51 -30 -118 0 -73 1 -75 37 -109 37 -34 62 -42 72 -25 3 4
-3 16 -14 26 -36 33 -21 86 30 104 38 13 78 6 266 -47 77 -22 162 -43 187 -47
l47 -7 0 -97 0 -96 -50 -40 c-27 -22 -50 -43 -50 -46 0 -4 23 -27 50 -52 l50
-45 0 -136 0 -135 -57 -17 c-103 -30 -255 -1 -313 61 l-21 22 125 61 126 61 0
225 c0 124 -3 226 -6 226 -3 0 -71 -29 -151 -65 -80 -36 -148 -64 -150 -62 -8
9 64 93 107 126 80 60 52 71 -56 22 -90 -42 -186 -136 -231 -228 -31 -63 -37
-87 -41 -157 -8 -148 33 -260 130 -357 166 -167 448 -180 612 -29 83 77 136
188 136 287 0 51 -13 55 -36 11 -27 -53 -83 -126 -115 -149 l-29 -20 0 125 0
125 54 43 c30 24 55 46 55 50 1 4 -23 26 -53 50 l-55 43 0 98 -1 97 27 0 c45
0 112 39 141 83 22 33 27 52 27 103 0 75 -20 108 -85 142 -51 25 -140 31 -140
8z m-340 -661 l0 -194 -30 -16 c-16 -8 -34 -15 -40 -15 -6 0 -23 26 -38 58
-28 61 -42 193 -28 267 7 33 13 40 69 65 34 16 63 29 65 30 1 0 2 -88 2 -195z"/>
<path d="M2105 1090 c-33 -28 -62 -55 -63 -61 -4 -10 104 -139 117 -139 13 0
142 112 139 121 -8 23 -105 128 -118 128 -9 1 -43 -22 -75 -49z"/>
<path d="M4223 752 l-142 -77 -1 -126 0 -127 50 -38 49 -38 -45 -48 c-56 -60
-74 -102 -74 -170 0 -63 27 -114 65 -124 35 -9 40 -1 20 29 -13 20 -14 30 -5
46 22 43 91 39 150 -8 l35 -28 143 85 142 85 0 122 0 122 -60 47 -61 48 32 36
c43 49 70 113 76 183 7 69 -4 75 -47 29 -20 -21 -37 -30 -60 -30 -34 0 -79 20
-99 44 -8 9 -16 16 -20 16 -3 -1 -70 -36 -148 -78z m142 -118 c30 -11 61 -15
94 -12 l50 5 -20 -26 c-11 -14 -49 -51 -86 -83 l-67 -56 -33 25 -33 25 0 100
0 100 25 -31 c14 -16 46 -37 70 -47z m18 -238 c26 -19 27 -22 27 -120 l0 -100
-27 26 c-52 48 -89 60 -169 56 l-74 -3 43 44 c62 64 149 131 161 124 6 -4 23
-16 39 -27z"/>
<path d="M2060 759 c-47 -33 -86 -66 -88 -74 -4 -17 11 -19 38 -5 15 8 23 4
44 -21 l26 -31 0 -209 c0 -115 -3 -209 -7 -209 -5 0 -23 -13 -42 -29 -38 -31
-36 -61 2 -36 21 13 26 11 93 -50 l71 -64 101 68 c75 50 99 70 92 81 -7 11
-12 11 -33 -3 -23 -15 -26 -14 -56 17 l-31 32 0 217 c0 119 3 217 8 217 18 1
54 41 48 56 -5 14 -8 14 -28 0 -12 -9 -25 -16 -29 -16 -3 0 -28 27 -54 60 -26
33 -53 60 -59 60 -6 -1 -49 -28 -96 -61z"/>
<path d="M2460 763 c-41 -30 -82 -58 -90 -63 -11 -7 -12 -12 -4 -20 9 -9 17
-9 35 0 20 11 26 9 51 -19 l28 -31 0 -207 0 -207 -26 -27 -27 -28 34 -28 c18
-15 53 -45 77 -66 l43 -37 75 67 c41 36 74 69 74 73 0 3 -13 19 -30 35 l-30
29 0 212 0 212 26 17 c26 17 26 17 75 -31 l49 -48 0 -186 0 -187 -25 -23 c-14
-13 -24 -29 -23 -36 2 -6 36 -39 76 -73 l74 -61 73 67 73 68 -29 30 -29 31 0
215 c0 220 3 240 39 239 9 -1 35 -18 59 -39 l42 -39 0 -188 c0 -181 -1 -189
-22 -212 l-23 -24 79 -73 79 -73 103 69 c75 50 102 73 97 84 -5 14 -8 14 -30
-1 -24 -15 -26 -15 -59 17 l-34 33 0 210 0 211 35 24 c19 13 35 27 35 32 0 19
-22 19 -46 0 l-26 -21 -70 65 c-39 36 -75 65 -80 65 -6 0 -47 -27 -93 -60 -46
-33 -88 -60 -95 -60 -6 0 -41 28 -77 62 -74 71 -56 73 -184 -17 l-71 -50 -57
63 c-31 34 -60 62 -66 61 -5 0 -44 -25 -85 -56z"/>
<path d="M3668 733 l-158 -85 0 -227 0 -226 102 -74 c56 -41 109 -76 118 -78
17 -4 295 214 295 231 0 22 -34 7 -97 -43 -36 -28 -69 -51 -73 -51 -4 0 -40
26 -81 57 -67 53 -73 61 -74 95 0 37 1 38 150 138 83 55 150 105 150 112 0 22
-145 237 -160 237 -8 0 -86 -39 -172 -86z m102 -133 c34 -56 61 -102 59 -104
-2 -2 -32 -22 -66 -45 l-63 -42 0 146 c0 80 2 145 3 145 2 0 32 -45 67 -100z"/>
</g>
</svg>
