<?xml version="1.0" standalone="no"?>
<!DOCTYPE svg PUBLIC "-//W3C//DTD SVG 20010904//EN"
 "http://www.w3.org/TR/2001/REC-SVG-20010904/DTD/svg10.dtd">
<svg version="1.0" xmlns="http://www.w3.org/2000/svg"
 width="342.000000pt" height="344.000000pt" viewBox="0 0 342.000000 344.000000"
 preserveAspectRatio="xMidYMid meet">

<g transform="translate(0.000000,344.000000) scale(0.100000,-0.100000)"
fill="#FF0000" stroke="none">
<path d="M0 1720 l0 -1720 1710 0 1710 0 0 1720 0 1720 -1710 0 -1710 0 0
-1720z m1113 801 l139 -6 -2 -315 c0 -173 -3 -316 -5 -318 -2 -2 -155 -1 -339
3 l-336 8 0 312 c0 171 3 315 7 318 8 8 343 7 536 -2z m919 -8 c2 -5 2 -149 0
-320 l-4 -313 -339 0 -339 0 0 313 c0 173 3 317 7 320 9 10 671 9 675 0z m784
-6 c1 -1 -1 -145 -4 -319 l-5 -318 -106 0 c-58 0 -211 3 -338 7 l-233 6 0 257
c0 141 3 285 7 320 l6 63 336 -7 c185 -4 337 -8 337 -9z m-2319 -1029 c56 -84
132 -200 170 -258 l68 -105 3 258 2 257 60 0 60 0 -2 -352 -3 -353 -64 0 -64
0 -166 257 -166 258 -6 -223 c-4 -122 -7 -239 -8 -260 l-1 -38 -57 3 -58 3 -3
230 c-2 127 0 285 3 353 l7 122 62 0 61 0 102 -152z m945 142 l68 0 0 -50 0
-50 -175 0 -175 0 0 -90 0 -89 153 -3 152 -3 3 -52 3 -53 -155 0 -156 0 0 -99
0 -98 61 -7 c34 -3 116 -6 181 -6 l119 0 -3 -52 c-3 -48 -5 -53 -25 -52 -13 0
-122 1 -243 2 l-220 2 0 348 c0 192 3 352 8 357 4 4 81 5 171 1 90 -3 195 -6
233 -6z m1578 -17 l55 -18 3 -59 c3 -53 1 -58 -15 -51 -106 46 -213 58 -277
31 -60 -25 -73 -108 -21 -142 14 -9 67 -29 119 -44 52 -15 115 -39 140 -54 79
-46 108 -152 67 -241 -23 -51 -53 -78 -116 -107 -90 -41 -307 -25 -358 26 -7
8 -11 32 -9 63 l4 51 56 -26 c68 -31 193 -42 242 -22 67 28 91 102 48 147 -14
15 -59 35 -122 54 -181 55 -226 96 -226 204 0 141 105 220 280 211 41 -2 100
-12 130 -23z m-1260 -40 c33 -165 104 -479 110 -486 7 -8 52 148 113 386 l32
127 62 0 62 0 10 -37 c6 -21 33 -130 61 -243 28 -113 54 -214 59 -225 8 -19
38 96 114 430 l22 100 54 3 c30 2 60 1 67 -2 14 -5 -20 -145 -117 -483 -71
-248 -57 -224 -136 -221 l-66 3 -65 242 c-36 134 -68 241 -71 238 -2 -3 -28
-87 -56 -188 -29 -100 -60 -208 -69 -240 l-17 -58 -67 3 -67 3 -23 80 c-13 44
-52 195 -88 335 -36 140 -67 263 -70 273 -5 15 3 17 65 17 l70 0 11 -57z"/>
<path d="M757 2423 c-4 -3 -7 -105 -7 -225 l0 -218 118 0 c138 0 176 14 206
74 16 32 17 44 7 76 -10 35 -43 72 -74 83 -8 3 -4 13 11 29 28 31 37 85 20
118 -7 13 -29 35 -47 47 -30 20 -47 23 -131 23 -53 0 -100 -3 -103 -7z m196
-85 c18 -22 15 -52 -8 -76 -7 -8 -34 -14 -61 -15 l-49 -2 -3 49 c-5 73 0 79
56 72 29 -5 54 -15 65 -28z m40 -199 c16 -23 17 -30 7 -50 -19 -35 -28 -39
-102 -39 l-68 0 0 59 c0 33 4 61 10 63 5 2 38 1 71 -2 52 -4 65 -9 82 -31z"/>
<path d="M1536 2399 c-3 -17 -6 -121 -6 -230 l0 -199 104 0 c114 0 158 10 198
48 53 49 42 144 -21 176 l-30 16 24 36 c29 42 31 61 10 110 -21 51 -77 74
-186 74 l-86 0 -7 -31z m201 -65 c19 -26 16 -42 -12 -69 -18 -19 -35 -25 -70
-25 l-45 0 0 53 c0 30 3 57 8 61 14 15 105 0 119 -20z m7 -178 c39 -16 52 -45
36 -76 -15 -28 -50 -40 -116 -40 l-54 0 0 65 0 65 50 0 c28 0 66 -6 84 -14z"/>
<path d="M2419 2417 c-218 -62 -243 -336 -39 -431 57 -26 195 -29 251 -4 31
13 37 22 41 52 2 20 2 38 0 40 -2 2 -25 -5 -50 -17 -34 -15 -67 -22 -118 -22
-60 0 -76 4 -111 27 -119 78 -87 249 55 289 51 14 117 7 178 -21 l45 -19 -3
41 c-3 38 -6 42 -43 55 -58 20 -153 25 -206 10z"/>
</g>
</svg>
