<?xml version="1.0" standalone="no"?>
<!DOCTYPE svg PUBLIC "-//W3C//DTD SVG 20010904//EN"
 "http://www.w3.org/TR/2001/REC-SVG-20010904/DTD/svg10.dtd">
<svg version="1.0" xmlns="http://www.w3.org/2000/svg"
 width="436.000000pt" height="438.000000pt" viewBox="0 0 436.000000 438.000000"
 preserveAspectRatio="xMidYMid meet">

<g transform="translate(0.000000,438.000000) scale(0.100000,-0.100000)"
fill="#0003" stroke="1px">
<path d="M870 4314 c-397 -57 -684 -301 -786 -669 -42 -149 -44 -217 -44
-1455 0 -1239 2 -1308 44 -1455 84 -297 296 -525 577 -620 181 -62 132 -60
1519 -60 1387 0 1338 -2 1519 60 268 91 480 310 566 585 54 174 55 202 55
1485 0 1230 -3 1314 -43 1460 -86 304 -309 537 -603 629 -180 55 -198 56
-1507 55 -959 -1 -1221 -4 -1297 -15z m870 -1644 l0 -320 -340 0 -340 0 0 320
0 320 340 0 340 0 0 -320z m780 0 l0 -320 -340 0 -340 0 0 320 0 320 340 0
340 0 0 -320z m780 0 l0 -320 -340 0 -340 0 0 320 0 320 340 0 340 0 0 -320z
m213 -588 l52 -18 3 -58 c3 -53 1 -58 -15 -51 -144 63 -274 59 -318 -9 -19
-29 -13 -76 13 -99 9 -8 69 -31 132 -51 130 -40 180 -69 204 -119 23 -49 21
-138 -4 -188 -59 -115 -276 -155 -442 -82 -37 16 -38 17 -38 71 0 48 2 53 18
47 131 -53 254 -62 312 -22 54 36 59 98 12 140 -11 10 -63 31 -115 46 -174 51
-218 90 -225 196 -4 56 -1 70 22 109 30 51 78 84 150 103 63 16 168 9 239 -15z
m-2457 -247 l169 -255 3 255 2 255 60 0 60 0 0 -355 0 -355 -59 0 c-71 0 -44
-30 -251 285 l-155 237 -5 -258 -5 -259 -57 -3 -58 -3 0 356 0 355 64 0 64 0
168 -255z m942 203 l-3 -53 -172 -3 -173 -2 0 -90 0 -90 155 0 155 0 0 -50 0
-50 -155 0 -155 0 0 -105 0 -105 186 0 185 0 -3 -52 -3 -53 -245 0 -245 0 -3
353 -2 352 240 0 241 0 -3 -52z m247 20 c18 -89 97 -439 108 -483 l13 -50 32
115 c17 63 48 184 69 268 l37 152 63 0 62 0 10 -37 c87 -339 127 -480 132
-470 8 14 80 323 105 450 l17 87 67 0 68 0 -53 -207 c-60 -237 -123 -459 -137
-486 -8 -15 -20 -17 -71 -15 l-61 3 -18 60 c-10 33 -41 145 -70 249 l-52 190
-14 -45 c-7 -24 -39 -136 -70 -249 l-57 -205 -63 -3 -63 -3 -14 34 c-17 40
-124 431 -158 575 l-24 102 68 0 67 0 7 -32z"/>
<path d="M1240 2669 l0 -231 118 4 c86 3 126 8 149 21 87 46 91 158 7 203
l-34 18 25 26 c54 56 18 157 -63 180 -20 5 -74 10 -119 10 l-83 0 0 -231z
m188 145 c14 -10 22 -26 22 -44 0 -38 -32 -60 -87 -60 l-43 0 0 60 0 60 43 0
c23 0 53 -7 65 -16z m27 -188 c31 -13 35 -19 35 -50 0 -29 -5 -38 -30 -51 -16
-8 -54 -15 -85 -15 l-55 0 0 65 0 65 50 0 c28 0 66 -7 85 -14z"/>
<path d="M2020 2670 l0 -230 103 0 c149 1 206 26 228 100 15 49 -8 100 -56
126 l-35 18 25 26 c37 38 35 106 -3 143 -38 36 -80 47 -179 47 l-83 0 0 -230z
m188 144 c14 -10 22 -26 22 -44 0 -38 -32 -60 -87 -60 l-43 0 0 60 0 60 43 0
c23 0 53 -7 65 -16z m27 -188 c31 -13 35 -19 35 -50 0 -29 -5 -38 -30 -51 -16
-8 -54 -15 -85 -15 l-55 0 0 65 0 65 50 0 c28 0 66 -7 85 -14z"/>
<path d="M2865 2876 c-59 -28 -98 -66 -120 -120 -23 -54 -21 -135 4 -184 26
-50 89 -105 140 -120 55 -17 169 -15 224 4 46 16 47 17 47 59 l0 43 -42 -21
c-51 -25 -152 -34 -200 -18 -19 6 -50 27 -68 46 -29 30 -34 43 -38 92 -3 48 0
64 20 92 39 58 71 75 146 79 51 3 80 -1 120 -17 29 -12 55 -21 57 -21 3 0 5
17 5 38 0 38 -1 39 -51 55 -77 25 -183 22 -244 -7z"/>
</g>
</svg>
